<svg version="1" xmlns="http://www.w3.org/2000/svg" width="341.333" height="341.333" viewBox="0 0 256.000000 256.000000"><path d="M0 128v128h256V0H0v128zm219-.5V219h-82v-16h67l-.2-75.3-.3-75.2-24.2-.3-24.1-.2-.4 6.7c-.2 3.8-.2 7.1 0 7.5.2.5 7.7.8 16.8.8H188v107.1l-43.5-43.8-43.4-43.8-.1-17.3V52H86v33H53v118h31v-15H69v-88h9.3l9.2.1 43.4 43.9 43.3 44H137v-28.4l-6.7-6.8c-3.7-3.8-7.1-6.8-7.5-6.8-.5 0-.8 16.4-.8 36.5V219H37V37h84v60.6l7.5 7.4 7.5 7.4V37l41.3-.3c22.6-.1 41.3-.3 41.5-.5.1-.1.2 41 .2 91.3z"/><path d="M53 65.5V79h26V52H53v13.5z"/></svg>